<?xml version="1.0" encoding="utf-8"?>
<!-- Generator: Adobe Illustrator 15.1.0, SVG Export Plug-In . SVG Version: 6.00 Build 0)  -->
<!DOCTYPE svg PUBLIC "-//W3C//DTD SVG 1.1//EN" "http://www.w3.org/Graphics/SVG/1.1/DTD/svg11.dtd">
<svg version="1.1" id="Layer_2" xmlns="http://www.w3.org/2000/svg" xmlns:xlink="http://www.w3.org/1999/xlink" x="0px" y="0px"
	 width="192px" height="192px" viewBox="0 0 192 192" enable-background="new 0 0 192 192" xml:space="preserve">
<g id="clock">
	<rect id="bg" width="192" height="192"/>
	<path fill="#DDC619" d="M181.758,181.758v-56.039c-9.055,26.314-29.725,46.984-56.039,56.039H181.758z M156.188,180.607
		c1.496-1.01,2.547-2.631,2.791-4.506c1.309,1.973,3.17,3.549,5.363,4.506H156.188z M163.918,173.73
		c-0.111,0.006-0.225,0.012-0.338,0.012c-2.461,0-4.465-2-4.465-4.465c0-2.459,2.004-4.463,4.465-4.463
		c0.113,0,0.227,0.006,0.338,0.014l0.91-0.91c-0.008-0.111-0.014-0.225-0.014-0.338c0-2.461,2.004-4.465,4.463-4.465
		c2.465,0,4.465,2.004,4.465,4.465c0,0.113-0.006,0.227-0.012,0.338l0.908,0.91c0.111-0.008,0.225-0.014,0.338-0.014
		c2.463,0,4.465,2.004,4.465,4.463c0,2.465-2.002,4.465-4.465,4.465c-0.113,0-0.227-0.006-0.338-0.012l-0.908,0.908
		c0.006,0.111,0.012,0.225,0.012,0.338c0,2.463-2,4.465-4.465,4.465c-2.459,0-4.463-2.002-4.463-4.465
		c0-0.113,0.006-0.227,0.014-0.338L163.918,173.73z M170.93,158.197c4.859,0.723,8.709,4.572,9.43,9.43
		c-0.707-2.301-2.852-3.977-5.383-3.977c-0.023,0-0.047,0-0.07,0c0-0.023,0.004-0.047,0.004-0.07
		C174.91,161.049,173.232,158.904,170.93,158.197z M174.91,174.977c0-0.023-0.004-0.047-0.004-0.07c0.023,0,0.047,0.004,0.07,0.004
		c2.531,0,4.676-1.678,5.383-3.98c-0.721,4.859-4.57,8.709-9.43,9.43C173.232,179.652,174.91,177.508,174.91,174.977z
		 M180.607,180.607h-6.395c2.855-1.246,5.148-3.539,6.395-6.395V180.607z M180.607,164.342c-0.957-2.193-2.533-4.055-4.506-5.363
		c1.875-0.244,3.496-1.295,4.506-2.791V164.342z M170.777,149.916c0,0,0.188-0.424,0.508-1.037
		c3.658-5.242,6.789-10.904,9.322-16.918v18.869c-0.057,1.047-0.111,1.775-0.111,1.775c0,2.885-2.348,5.232-5.232,5.232
		s-5.232-2.348-5.232-5.232C170.031,151.621,170.303,150.703,170.777,149.916z M168.844,152.209
		c-0.008,0.131-0.012,0.264-0.012,0.396c0,1.695,0.658,3.234,1.729,4.385c-0.422-0.045-0.85-0.066-1.283-0.066
		c-1.957,0-3.809,0.457-5.453,1.27C165.58,156.273,167.254,154.279,168.844,152.209z M167.627,158.197
		c-2.301,0.707-3.977,2.852-3.977,5.383c0,0.023,0,0.047,0,0.07c-0.023,0-0.047,0-0.07,0c-2.531,0-4.676,1.676-5.383,3.977
		C158.92,162.77,162.77,158.92,167.627,158.197z M163.58,174.91c0.023,0,0.047-0.004,0.07-0.004c0,0.023,0,0.047,0,0.07
		c0,2.531,1.676,4.676,3.977,5.383c-4.857-0.721-8.707-4.57-9.43-9.43C158.904,173.232,161.049,174.91,163.58,174.91z
		 M158.193,163.824c-0.813,1.645-1.27,3.496-1.27,5.453c0,0.434,0.021,0.861,0.066,1.283c-1.15-1.07-2.689-1.729-4.385-1.729
		c-0.133,0-0.266,0.004-0.396,0.012C154.279,167.254,156.273,165.58,158.193,163.824z M149.916,170.777
		c0.787-0.475,1.705-0.746,2.689-0.746c2.885,0,5.232,2.348,5.232,5.232s-2.348,5.232-5.232,5.232c0,0-0.729,0.055-1.775,0.111
		h-18.869c6.014-2.533,11.676-5.664,16.918-9.322C149.492,170.965,149.916,170.777,149.916,170.777z M10.242,125.719v56.039h56.039
		C39.967,172.703,19.297,152.033,10.242,125.719z M28.176,158.193c-1.645-0.813-3.496-1.27-5.453-1.27
		c-0.434,0-0.861,0.021-1.283,0.066c1.07-1.15,1.729-2.689,1.729-4.385c0-0.133-0.004-0.266-0.012-0.396
		C24.746,154.279,26.42,156.273,28.176,158.193z M11.393,131.961c2.535,6.014,5.664,11.676,9.322,16.918
		c0.32,0.613,0.51,1.037,0.51,1.037c0.473,0.787,0.744,1.705,0.744,2.689c0,2.885-2.348,5.232-5.232,5.232s-5.232-2.348-5.232-5.232
		c0,0-0.055-0.729-0.111-1.775V131.961z M17.094,163.65c-0.023,0-0.047,0-0.07,0c-2.531,0-4.676,1.676-5.383,3.977
		c0.721-4.857,4.57-8.707,9.43-9.43c-2.301,0.707-3.98,2.852-3.98,5.383C17.09,163.604,17.094,163.627,17.094,163.65z
		 M11.393,156.188c1.01,1.496,2.631,2.547,4.506,2.791c-1.973,1.309-3.549,3.17-4.506,5.363V156.188z M11.393,180.607v-6.395
		c1.246,2.855,3.539,5.148,6.395,6.395H11.393z M11.641,170.93c0.707,2.303,2.852,3.98,5.383,3.98c0.023,0,0.047-0.004,0.07-0.004
		c0,0.023-0.004,0.047-0.004,0.07c0,2.531,1.68,4.676,3.98,5.383C16.211,179.639,12.361,175.789,11.641,170.93z M18.258,174.977
		c0-0.113,0.006-0.227,0.014-0.338l-0.91-0.908c-0.111,0.006-0.225,0.012-0.338,0.012c-2.463,0-4.465-2-4.465-4.465
		c0-2.459,2.002-4.463,4.465-4.463c0.113,0,0.227,0.006,0.338,0.014l0.91-0.91c-0.008-0.111-0.014-0.225-0.014-0.338
		c0-2.461,2-4.465,4.465-4.465c2.459,0,4.463,2.004,4.463,4.465c0,0.113-0.006,0.227-0.014,0.338l0.91,0.91
		c0.111-0.008,0.225-0.014,0.338-0.014c2.461,0,4.465,2.004,4.465,4.463c0,2.465-2.004,4.465-4.465,4.465
		c-0.113,0-0.227-0.006-0.338-0.012l-0.91,0.908c0.008,0.111,0.014,0.225,0.014,0.338c0,2.463-2.004,4.465-4.463,4.465
		C20.258,179.441,18.258,177.439,18.258,174.977z M28.35,174.977c0-0.023,0-0.047,0-0.07c0.023,0,0.047,0.004,0.07,0.004
		c2.531,0,4.676-1.678,5.383-3.98c-0.723,4.859-4.57,8.709-9.43,9.43C26.674,179.652,28.35,177.508,28.35,174.977z M27.658,180.607
		c2.193-0.957,4.055-2.533,5.363-4.506c0.244,1.875,1.295,3.496,2.791,4.506H27.658z M43.121,171.285
		c5.244,3.658,10.904,6.789,16.918,9.322H41.17c-1.047-0.057-1.775-0.111-1.775-0.111c-2.885,0-5.232-2.348-5.232-5.232
		s2.348-5.232,5.232-5.232c0.984,0,1.902,0.271,2.689,0.746C42.084,170.777,42.508,170.965,43.121,171.285z M39.791,168.844
		c-0.131-0.008-0.264-0.012-0.396-0.012c-1.695,0-3.234,0.658-4.385,1.729c0.045-0.422,0.068-0.85,0.068-1.283
		c0-1.957-0.459-3.809-1.271-5.453C35.727,165.58,37.721,167.254,39.791,168.844z M28.42,163.65c-0.023,0-0.047,0-0.07,0
		c0-0.023,0-0.047,0-0.07c0-2.531-1.676-4.676-3.977-5.383c4.859,0.723,8.707,4.572,9.43,9.43
		C33.096,165.326,30.951,163.65,28.42,163.65z M181.758,66.281V10.242h-56.039C152.033,19.297,172.703,39.967,181.758,66.281z
		 M152.209,23.156c0.131,0.008,0.264,0.012,0.396,0.012c1.695,0,3.234-0.658,4.385-1.729c-0.045,0.422-0.066,0.85-0.066,1.283
		c0,1.957,0.457,3.809,1.27,5.453C156.273,26.42,154.279,24.746,152.209,23.156z M158.197,24.373
		c0.707,2.301,2.852,3.977,5.383,3.977c0.023,0,0.047,0,0.07,0c0,0.023,0,0.047,0,0.07c0,2.531,1.676,4.676,3.977,5.383
		C162.77,33.08,158.92,29.232,158.197,24.373z M163.824,33.807c1.645,0.813,3.496,1.271,5.453,1.271
		c0.434,0,0.861-0.023,1.283-0.068c-1.07,1.15-1.729,2.689-1.729,4.385c0,0.133,0.004,0.266,0.012,0.396
		C167.254,37.721,165.58,35.727,163.824,33.807z M180.607,60.039c-2.533-6.014-5.664-11.674-9.322-16.918
		c-0.32-0.613-0.508-1.037-0.508-1.037c-0.475-0.787-0.746-1.705-0.746-2.689c0-2.885,2.348-5.232,5.232-5.232
		s5.232,2.348,5.232,5.232c0,0,0.055,0.729,0.111,1.775V60.039z M174.906,28.35c0.023,0,0.047,0,0.07,0
		c2.531,0,4.676-1.676,5.383-3.977c-0.721,4.859-4.57,8.707-9.43,9.43c2.303-0.707,3.98-2.852,3.98-5.383
		C174.91,28.396,174.906,28.373,174.906,28.35z M180.607,35.813c-1.01-1.496-2.631-2.547-4.506-2.791
		c1.973-1.309,3.549-3.17,4.506-5.363V35.813z M180.607,11.393v6.395c-1.246-2.855-3.539-5.148-6.395-6.395H180.607z M180.359,21.07
		c-0.707-2.301-2.852-3.98-5.383-3.98c-0.023,0-0.047,0.004-0.07,0.004c0-0.023,0.004-0.047,0.004-0.07
		c0-2.531-1.678-4.676-3.98-5.383C175.789,12.361,179.639,16.211,180.359,21.07z M173.742,17.023c0,0.113-0.006,0.227-0.012,0.338
		l0.908,0.91c0.111-0.008,0.225-0.014,0.338-0.014c2.463,0,4.465,2,4.465,4.465c0,2.459-2.002,4.463-4.465,4.463
		c-0.113,0-0.227-0.006-0.338-0.014l-0.908,0.91c0.006,0.111,0.012,0.225,0.012,0.338c0,2.461-2,4.465-4.465,4.465
		c-2.459,0-4.463-2.004-4.463-4.465c0-0.113,0.006-0.227,0.014-0.338l-0.91-0.91c-0.111,0.008-0.225,0.014-0.338,0.014
		c-2.461,0-4.465-2.004-4.465-4.463c0-2.465,2.004-4.465,4.465-4.465c0.113,0,0.227,0.006,0.338,0.014l0.91-0.91
		c-0.008-0.111-0.014-0.225-0.014-0.338c0-2.463,2.004-4.465,4.463-4.465C171.742,12.559,173.742,14.561,173.742,17.023z
		 M163.65,17.023c0,0.023,0,0.047,0,0.07c-0.023,0-0.047-0.004-0.07-0.004c-2.531,0-4.676,1.68-5.383,3.98
		c0.723-4.859,4.572-8.709,9.43-9.43C165.326,12.348,163.65,14.492,163.65,17.023z M164.342,11.393
		c-2.193,0.957-4.055,2.533-5.363,4.506c-0.244-1.875-1.295-3.496-2.791-4.506H164.342z M152.605,11.504
		c2.885,0,5.232,2.348,5.232,5.232s-2.348,5.232-5.232,5.232c-0.984,0-1.902-0.271-2.689-0.744c0,0-0.424-0.189-1.037-0.51
		c-5.242-3.658-10.904-6.787-16.918-9.322h18.869C151.877,11.449,152.605,11.504,152.605,11.504z M66.281,10.242H10.242v56.039
		C19.297,39.967,39.967,19.297,66.281,10.242z M33.807,28.176c0.813-1.645,1.271-3.496,1.271-5.453c0-0.434-0.023-0.861-0.068-1.283
		c1.15,1.07,2.689,1.729,4.385,1.729c0.133,0,0.266-0.004,0.396-0.012C37.721,24.746,35.727,26.42,33.807,28.176z M41.17,11.393
		h18.869c-6.014,2.535-11.674,5.664-16.918,9.322c-0.613,0.32-1.037,0.51-1.037,0.51c-0.787,0.473-1.705,0.744-2.689,0.744
		c-2.885,0-5.232-2.348-5.232-5.232s2.348-5.232,5.232-5.232C39.395,11.504,40.123,11.449,41.17,11.393z M35.813,11.393
		c-1.496,1.01-2.547,2.631-2.791,4.506c-1.309-1.973-3.17-3.549-5.363-4.506H35.813z M33.803,21.07
		c-0.707-2.301-2.852-3.98-5.383-3.98c-0.023,0-0.047,0.004-0.07,0.004c0-0.023,0-0.047,0-0.07c0-2.531-1.676-4.676-3.977-5.383
		C29.232,12.361,33.08,16.211,33.803,21.07z M27.186,17.023c0,0.113-0.006,0.227-0.014,0.338l0.91,0.91
		c0.111-0.008,0.225-0.014,0.338-0.014c2.461,0,4.465,2,4.465,4.465c0,2.459-2.004,4.463-4.465,4.463
		c-0.113,0-0.227-0.006-0.338-0.014l-0.91,0.91c0.008,0.111,0.014,0.225,0.014,0.338c0,2.461-2.004,4.465-4.463,4.465
		c-2.465,0-4.465-2.004-4.465-4.465c0-0.113,0.006-0.227,0.014-0.338l-0.91-0.91c-0.111,0.008-0.225,0.014-0.338,0.014
		c-2.463,0-4.465-2.004-4.465-4.463c0-2.465,2.002-4.465,4.465-4.465c0.113,0,0.227,0.006,0.338,0.014l0.91-0.91
		c-0.008-0.111-0.014-0.225-0.014-0.338c0-2.463,2-4.465,4.465-4.465C25.182,12.559,27.186,14.561,27.186,17.023z M21.07,33.803
		c-4.859-0.723-8.709-4.57-9.43-9.43c0.707,2.301,2.852,3.977,5.383,3.977c0.023,0,0.047,0,0.07,0c0,0.023-0.004,0.047-0.004,0.07
		C17.09,30.951,18.77,33.096,21.07,33.803z M17.09,17.023c0,0.023,0.004,0.047,0.004,0.07c-0.023,0-0.047-0.004-0.07-0.004
		c-2.531,0-4.676,1.68-5.383,3.98c0.721-4.859,4.57-8.709,9.43-9.43C18.77,12.348,17.09,14.492,17.09,17.023z M11.393,11.393h6.395
		c-2.855,1.246-5.148,3.539-6.395,6.395V11.393z M11.393,27.658c0.957,2.193,2.533,4.055,4.506,5.363
		c-1.875,0.244-3.496,1.295-4.506,2.791V27.658z M21.225,42.084c0,0-0.189,0.424-0.51,1.037c-3.658,5.244-6.787,10.904-9.322,16.918
		V41.17c0.057-1.047,0.111-1.775,0.111-1.775c0-2.885,2.348-5.232,5.232-5.232s5.232,2.348,5.232,5.232
		C21.969,40.379,21.697,41.297,21.225,42.084z M23.156,39.791c0.008-0.131,0.012-0.264,0.012-0.396c0-1.695-0.658-3.234-1.729-4.385
		c0.422,0.045,0.85,0.068,1.283,0.068c1.957,0,3.809-0.459,5.453-1.271C26.42,35.727,24.746,37.721,23.156,39.791z M24.373,33.803
		c2.301-0.707,3.977-2.852,3.977-5.383c0-0.023,0-0.047,0-0.07c0.023,0,0.047,0,0.07,0c2.531,0,4.676-1.676,5.383-3.977
		C33.08,29.232,29.232,33.08,24.373,33.803z M5.953,5.953v180.094h180.094V5.953H5.953z M8.322,183.68v-73.537
		c6.035,37.715,35.82,67.5,73.535,73.537H8.322z M8.322,81.857V8.322h73.535C44.143,14.357,14.357,44.143,8.322,81.857z
		 M183.68,183.68h-73.537c37.715-6.037,67.5-35.822,73.537-73.537V183.68z M183.68,81.857c-6.037-37.715-35.822-67.5-73.537-73.535
		h73.537V81.857z"/>
	<circle id="back" fill="#EDE7CE" cx="96" cy="96" r="84"/>
	<path d="M52.508,24.234c1.016-0.617,2.004-1.275,3.049-1.85l10.805,18.713c-1.049,0.568-2.041,1.219-3.053,1.844L52.508,24.234z
		 M158.385,96c0,0.6-0.074,1.184-0.09,1.781h21.617C179.922,97.184,180,96.6,180,96s-0.078-1.184-0.088-1.781h-21.617
		C158.311,94.816,158.385,95.4,158.385,96z M42.941,63.309L24.234,52.508c-0.617,1.016-1.275,2.004-1.85,3.049l18.713,10.805
		C41.666,65.313,42.316,64.32,42.941,63.309z M139.492,24.234c-1.016-0.617-2.004-1.275-3.049-1.85l-10.805,18.713
		c1.049,0.568,2.041,1.219,3.053,1.844L139.492,24.234z M33.615,96c0-0.6,0.074-1.184,0.09-1.781H12.088
		C12.078,94.816,12,95.4,12,96s0.078,1.184,0.088,1.781h21.617C33.689,97.184,33.615,96.6,33.615,96z M97.781,33.705V12.088
		C97.184,12.078,96.6,12,96,12s-1.184,0.078-1.781,0.088v21.617c0.598-0.016,1.182-0.09,1.781-0.09S97.184,33.689,97.781,33.705z
		 M169.615,136.443l-18.713-10.805c-0.568,1.049-1.219,2.041-1.844,3.053l18.707,10.801
		C168.383,138.477,169.041,137.488,169.615,136.443z M169.615,55.557c-0.574-1.045-1.232-2.033-1.85-3.049l-18.707,10.801
		c0.625,1.012,1.275,2.004,1.844,3.053L169.615,55.557z M128.691,149.059c-1.012,0.625-2.004,1.275-3.053,1.844l10.805,18.713
		c1.045-0.574,2.033-1.232,3.049-1.85L128.691,149.059z M42.941,128.691c-0.625-1.012-1.275-2.004-1.844-3.053l-18.713,10.805
		c0.574,1.045,1.232,2.033,1.85,3.049L42.941,128.691z M66.361,150.902c-1.049-0.568-2.041-1.219-3.053-1.844l-10.801,18.707
		c1.016,0.617,2.004,1.275,3.049,1.85L66.361,150.902z M97.781,179.912v-21.617c-0.598,0.016-1.182,0.09-1.781,0.09
		s-1.184-0.074-1.781-0.09v21.617C94.816,179.922,95.4,180,96,180S97.184,179.922,97.781,179.912z"/>
	<g id="Short_Hand_2_">
		<g>
			<path fill="#4F0200" d="M125.847,121.715l-0.225-0.054c-0.634-0.151-1.26-0.225-1.916-0.225c-1.088,0-2.074,0.21-2.944,0.395
				c-0.75,0.16-1.458,0.311-2.129,0.311c-0.925,0-1.678-0.285-2.439-0.925c-2.608-2.19-0.004-5.37,0.108-5.504l0.246-0.294
				l-9.117-7.653c-0.997-0.836-2.131-1.316-3.114-1.316c-0.705,0-1.334,0.239-1.842,0.697c-0.276-0.366-0.335-0.803-0.411-1.366
				c-0.146-1.083-0.327-2.432-2.167-3.974l-2.75-1.541l-0.145,0.034c-0.33,0.077-0.669,0.116-1.008,0.116
				c-1.035,0-2.041-0.367-2.833-1.032c-1.073-0.901-1.646-2.222-1.571-3.625l0.01-0.191l-0.883-0.741
				c-0.402-0.337-0.95-0.502-1.674-0.502c-0.591,0-1.24,0.106-1.869,0.209c-0.598,0.098-1.216,0.199-1.744,0.199h0
				c-0.536,0-0.922-0.105-1.181-0.322c-1.221-1.024-0.846-2.109-0.133-3.795c0.533-1.26,1.125-2.66,0.588-4.096
				c0.2,0.036,0.4,0.055,0.6,0.055h0c1.254,0,2.309-0.683,3.33-1.343c0.853-0.552,1.658-1.073,2.438-1.073
				c0.453,0,0.886,0.178,1.323,0.545c0.601,0.503,0.615,1.701,0.629,2.859c0.016,1.332,0.032,2.709,0.902,3.439l0.884,0.741
				l0.187-0.043c0.33-0.077,0.669-0.116,1.008-0.116c1.035,0,2.041,0.367,2.833,1.032c1.073,0.901,1.646,2.222,1.571,3.625
				l-0.008,0.148l1.943,2.39c1.582,1.336,2.786,1.509,3.762,1.509c0.2,0,0.392-0.008,0.577-0.015
				c0.163-0.006,0.321-0.013,0.474-0.013c0.36,0,0.66,0.035,0.944,0.181c-0.446,0.711-0.533,1.533-0.249,2.4
				c0.271,0.827,0.882,1.67,1.719,2.373l9.12,7.651l0.247-0.293c0.016-0.019,1.572-1.84,3.424-1.84c0.696,0,1.361,0.262,1.977,0.778
				c1.508,1.267,1.46,2.647,1.398,4.394c-0.049,1.41-0.106,3.008,0.676,4.814l0.092,0.211l2.224,0.178l-0.014,2.336l-2.311,0.433
				L125.847,121.715z M96.001,92.735c-0.968,0-1.88,0.425-2.502,1.166c-1.156,1.379-0.976,3.443,0.402,4.6
				c0.587,0.492,1.332,0.763,2.097,0.763c0.968,0,1.88-0.425,2.502-1.166c1.156-1.379,0.976-3.443-0.402-4.6
				C97.511,93.007,96.767,92.735,96.001,92.735z"/>
		</g>
		<g>
			<path d="M91.073,84.543c0.364,0,0.706,0.145,1.077,0.456c0.465,0.389,0.479,1.547,0.491,2.569
				c0.017,1.419,0.035,2.886,1.041,3.729l0.736,0.617l0.293,0.247l0.374-0.087c0.302-0.07,0.612-0.105,0.921-0.105
				c0.944,0,1.863,0.334,2.587,0.942c0.98,0.822,1.502,2.029,1.434,3.31l-0.016,0.295l0.187,0.23l1.85,2.275l0.046,0.057
				l0.056,0.047c1.635,1.371,2.974,1.546,3.958,1.546c0.205,0,0.402-0.007,0.593-0.015c0.158-0.006,0.31-0.013,0.458-0.013
				c0.151,0,0.28,0.007,0.395,0.024c-0.3,0.704-0.326,1.492-0.063,2.292c0.293,0.895,0.945,1.799,1.837,2.548l8.826,7.404
				l0.587,0.49l0.494-0.583c0.014-0.017,1.463-1.705,3.131-1.704c0.612,0,1.177,0.225,1.729,0.688
				c1.366,1.147,1.322,2.38,1.262,4.087c-0.051,1.451-0.109,3.095,0.707,4.98l0.183,0.424l0.46,0.037l1.639,0.131l-0.01,1.663
				l-1.647,0.308l-0.412-1.589l-0.116-0.447l-0.449-0.107c-0.663-0.158-1.319-0.235-2.004-0.235c-1.129,0-2.135,0.214-3.023,0.404
				c-0.729,0.155-1.418,0.302-2.05,0.302c-0.829,0-1.505-0.257-2.192-0.834c-2.311-1.941,0.054-4.842,0.155-4.963l0.494-0.588
				l-0.588-0.494l-8.824-7.406c-1.08-0.906-2.273-1.406-3.36-1.406c-0.634,0-1.214,0.17-1.714,0.498
				c-0.071-0.216-0.11-0.481-0.158-0.834c-0.146-1.089-0.347-2.58-2.301-4.217l-0.056-0.047l-0.063-0.036l-2.561-1.428l-0.259-0.145
				l-0.289,0.067c-0.302,0.07-0.612,0.105-0.921,0.105c-0.944,0-1.863-0.334-2.587-0.942c-0.98-0.822-1.502-2.029-1.434-3.31
				l0.021-0.383L91.7,95.15l-0.736-0.617c-0.475-0.398-1.103-0.592-1.921-0.592c-0.622,0-1.288,0.109-1.931,0.214
				c-0.61,0.1-1.186,0.194-1.683,0.194c-0.442,0-0.748-0.076-0.934-0.232c-1.018-0.854-0.709-1.736-0.026-3.351
				c0.472-1.117,1.028-2.433,0.756-3.808c0.026,0.001,0.052,0.001,0.079,0.001c1.368,0,2.521-0.746,3.538-1.404
				C89.646,85.034,90.405,84.543,91.073,84.543 M95.999,99.648c1.082,0,2.101-0.475,2.797-1.304c1.292-1.541,1.09-3.847-0.451-5.14
				c-0.656-0.55-1.488-0.853-2.343-0.853c-1.082,0-2.101,0.475-2.797,1.304c-1.292,1.541-1.09,3.847,0.451,5.14
				C94.311,99.346,95.144,99.648,95.999,99.648 M91.073,83.775c-1.864,0-3.575,2.416-5.768,2.416c-0.444,0-0.908-0.099-1.396-0.337
				c2.326,3.205-2.848,6.385,0.094,8.852c0.368,0.309,0.866,0.412,1.428,0.412c1.119,0,2.494-0.408,3.613-0.408
				c0.562,0,1.059,0.103,1.428,0.412l0.736,0.617c-0.078,1.457,0.504,2.93,1.707,3.939c0.899,0.754,1.993,1.122,3.081,1.122
				c0.368,0,0.736-0.042,1.095-0.125l2.561,1.428c2.945,2.469,1.354,4.363,2.824,5.598c0.513-0.61,1.158-0.865,1.842-0.865
				c0.964,0,2.006,0.504,2.867,1.226l8.824,7.406c0,0-3,3.576-0.061,6.045c0.919,0.771,1.793,1.015,2.687,1.015
				c1.522,0,3.104-0.706,5.073-0.706c0.573,0,1.179,0.06,1.826,0.214l0.592,2.283l2.975-0.557l0.018-3.01l-2.35-0.188
				c-1.705-3.938,0.762-6.879-2.18-9.35c-0.754-0.632-1.513-0.868-2.223-0.868c-2.06,0-3.718,1.977-3.718,1.977l-8.826-7.404
				c-1.471-1.234-2.408-3.104-1.174-4.574c-0.47-0.395-0.953-0.47-1.488-0.47c-0.328,0-0.675,0.028-1.051,0.028
				c-0.931,0-2.04-0.172-3.464-1.367l-1.85-2.275c0.078-1.457-0.504-2.93-1.707-3.939c-0.899-0.754-1.993-1.122-3.081-1.122
				c-0.368,0-0.736,0.042-1.095,0.125l-0.736-0.617c-1.471-1.234-0.061-5.066-1.531-6.299C92.1,83.954,91.581,83.775,91.073,83.775
				L91.073,83.775z M95.999,98.88c-0.653,0-1.311-0.221-1.85-0.673c-1.219-1.023-1.377-2.84-0.355-4.059
				c0.57-0.679,1.387-1.029,2.208-1.029c0.653,0,1.311,0.221,1.85,0.673c1.219,1.023,1.377,2.84,0.355,4.059
				C97.637,98.531,96.82,98.88,95.999,98.88L95.999,98.88z"/>
		</g>
	</g>
	<g id="Long_Hand_1_">
		<path fill="#4F0200" d="M99.336,100.935l-0.193,0.12c-0.947,0.587-2.037,0.898-3.151,0.898c-1.038,0-2.064-0.275-2.968-0.797
			c-1.866-1.079-3.006-3.088-2.976-5.244l0.003-0.232l-0.204-0.111c-1.793-0.975-3.81-1.876-6.398-1.876
			c-1.325,0-2.686,0.234-4.143,0.715c0.362-3.922-0.672-7.459-1.081-8.669c1.252-0.251,4.833-1.125,8.049-3.4
			c1.038,4.965,3.774,7.016,6.277,8.55l0.198,0.121l0.2-0.119c0.925-0.552,1.984-0.843,3.061-0.843c1.037,0,2.063,0.275,2.966,0.796
			c1.905,1.101,3.044,3.152,2.974,5.353l-0.007,0.228l64.762,38.178l1.811,3.265l-3.732,0.062L99.336,100.935z M96.002,92.256
			c-1.335,0-2.578,0.718-3.243,1.873c-0.501,0.864-0.634,1.873-0.375,2.84c0.259,0.966,0.878,1.773,1.745,2.272
			c0.568,0.329,1.214,0.503,1.869,0.503c1.335,0,2.578-0.718,3.243-1.873c0.501-0.865,0.634-1.874,0.375-2.84
			c-0.259-0.966-0.878-1.773-1.745-2.272C97.303,92.43,96.657,92.256,96.002,92.256z"/>
		<path d="M86.024,82.974c1.15,4.711,3.85,6.724,6.327,8.242l0.396,0.243l0.399-0.238c0.866-0.516,1.857-0.789,2.865-0.789
			c0.97,0,1.929,0.258,2.774,0.745c1.782,1.03,2.849,2.949,2.783,5.008l-0.015,0.455l0.392,0.231l64.476,38.009l1.45,2.614
			l-2.988,0.049l-65.158-36.831l-0.396-0.224l-0.387,0.24c-0.886,0.55-1.906,0.84-2.949,0.84c-0.97,0-1.93-0.258-2.775-0.746
			c-1.746-1.009-2.813-2.889-2.784-4.906l0.006-0.464l-0.408-0.222c-1.75-0.951-3.9-1.923-6.582-1.923
			c-1.199,0-2.424,0.186-3.718,0.564c0.204-3.388-0.565-6.418-1.01-7.849C80.182,85.695,83.191,84.845,86.024,82.974
			 M95.998,100.128c1.472,0,2.842-0.791,3.575-2.063c0.553-0.954,0.7-2.067,0.415-3.132c-0.286-1.065-0.969-1.956-1.923-2.505
			c-0.627-0.363-1.34-0.555-2.063-0.555c-1.472,0-2.842,0.791-3.575,2.063c-0.553,0.954-0.7,2.067-0.415,3.132
			c0.286,1.066,0.969,1.956,1.923,2.505C94.563,99.936,95.276,100.128,95.998,100.128 M86.537,81.668
			c-3.967,3.031-8.826,3.773-8.826,3.773s1.787,4.58,1.146,9.529c1.725-0.634,3.233-0.894,4.592-0.894
			c2.424,0,4.37,0.827,6.215,1.83c-0.031,2.221,1.107,4.391,3.168,5.582c0.997,0.575,2.085,0.849,3.16,0.849
			c1.183,0,2.348-0.332,3.354-0.956l65.34,36.934l4.477-0.074l-2.172-3.916l-64.656-38.115c0.072-2.262-1.07-4.486-3.166-5.697
			c-0.997-0.575-2.084-0.848-3.158-0.848c-1.145,0-2.273,0.311-3.258,0.897C89.957,88.848,87.41,86.711,86.537,81.668L86.537,81.668
			z M95.998,99.36c-0.571,0-1.149-0.146-1.678-0.452c-1.607-0.926-2.158-2.982-1.229-4.588c0.621-1.078,1.75-1.681,2.91-1.681
			c0.571,0,1.149,0.146,1.678,0.452c1.607,0.926,2.158,2.982,1.229,4.588C98.288,98.757,97.158,99.36,95.998,99.36L95.998,99.36z"/>
	</g>
</g>
</svg>
