<?xml version="1.0" encoding="utf-8"?>
<!-- Generator: Adobe Illustrator 15.1.0, SVG Export Plug-In . SVG Version: 6.00 Build 0)  -->
<!DOCTYPE svg PUBLIC "-//W3C//DTD SVG 1.1//EN" "http://www.w3.org/Graphics/SVG/1.1/DTD/svg11.dtd">
<svg version="1.1" id="Layer_2" xmlns="http://www.w3.org/2000/svg" xmlns:xlink="http://www.w3.org/1999/xlink" x="0px" y="0px"
	 width="48px" height="48px" viewBox="0 0 48 48" enable-background="new 0 0 48 48" xml:space="preserve">
<g id="clock">
	<rect id="bg" width="48" height="48"/>
	<path fill="#DDC619" d="M45.439,45.439V31.43c-2.264,6.579-7.431,11.746-14.01,14.01H45.439z M39.047,45.152
		c0.374-0.252,0.637-0.658,0.698-1.126c0.327,0.493,0.792,0.887,1.341,1.126H39.047z M40.979,43.433
		c-0.028,0.001-0.056,0.003-0.084,0.003c-0.615,0-1.116-0.5-1.116-1.116c0-0.615,0.501-1.116,1.116-1.116
		c0.028,0,0.057,0.001,0.084,0.003l0.228-0.228c-0.002-0.028-0.003-0.056-0.003-0.084c0-0.615,0.501-1.116,1.116-1.116
		c0.616,0,1.116,0.501,1.116,1.116c0,0.028-0.001,0.057-0.003,0.084l0.227,0.228c0.028-0.002,0.056-0.003,0.084-0.003
		c0.616,0,1.116,0.501,1.116,1.116c0,0.616-0.5,1.116-1.116,1.116c-0.028,0-0.057-0.001-0.084-0.003l-0.227,0.227
		c0.001,0.028,0.003,0.056,0.003,0.084c0,0.616-0.5,1.116-1.116,1.116c-0.615,0-1.116-0.5-1.116-1.116
		c0-0.028,0.001-0.057,0.003-0.084L40.979,43.433z M42.732,39.549c1.215,0.181,2.177,1.143,2.357,2.357
		c-0.177-0.575-0.713-0.994-1.346-0.994c-0.006,0-0.012,0-0.018,0c0-0.006,0.001-0.012,0.001-0.018
		C43.728,40.262,43.308,39.726,42.732,39.549z M43.728,43.744c0-0.006-0.001-0.012-0.001-0.018c0.006,0,0.012,0.001,0.018,0.001
		c0.633,0,1.169-0.419,1.346-0.995c-0.18,1.215-1.143,2.177-2.357,2.357C43.308,44.913,43.728,44.377,43.728,43.744z M45.152,45.152
		h-1.599c0.714-0.312,1.287-0.885,1.599-1.599V45.152z M45.152,41.085c-0.239-0.548-0.633-1.014-1.126-1.341
		c0.469-0.061,0.874-0.324,1.126-0.698V41.085z M42.694,37.479c0,0,0.047-0.106,0.127-0.259c0.915-1.311,1.697-2.726,2.331-4.229
		v4.717c-0.014,0.262-0.028,0.444-0.028,0.444c0,0.721-0.587,1.308-1.308,1.308s-1.308-0.587-1.308-1.308
		C42.508,37.905,42.576,37.676,42.694,37.479z M42.211,38.052c-0.002,0.033-0.003,0.066-0.003,0.099
		c0,0.424,0.165,0.809,0.432,1.096c-0.105-0.011-0.212-0.017-0.321-0.017c-0.489,0-0.952,0.114-1.363,0.317
		C41.395,39.068,41.813,38.57,42.211,38.052z M41.907,39.549c-0.575,0.177-0.994,0.713-0.994,1.346c0,0.006,0,0.012,0,0.018
		c-0.006,0-0.012,0-0.018,0c-0.633,0-1.169,0.419-1.346,0.994C39.73,40.692,40.692,39.73,41.907,39.549z M40.895,43.728
		c0.006,0,0.012-0.001,0.018-0.001c0,0.006,0,0.012,0,0.018c0,0.633,0.419,1.169,0.994,1.346c-1.214-0.18-2.177-1.143-2.357-2.357
		C39.726,43.308,40.262,43.728,40.895,43.728z M39.548,40.956c-0.203,0.411-0.317,0.874-0.317,1.363
		c0,0.108,0.005,0.215,0.017,0.321c-0.288-0.268-0.672-0.432-1.096-0.432c-0.033,0-0.066,0.001-0.099,0.003
		C38.57,41.813,39.068,41.395,39.548,40.956z M37.479,42.694c0.197-0.119,0.426-0.187,0.672-0.187c0.721,0,1.308,0.587,1.308,1.308
		s-0.587,1.308-1.308,1.308c0,0-0.182,0.014-0.444,0.028H32.99c1.503-0.633,2.919-1.416,4.229-2.331
		C37.373,42.741,37.479,42.694,37.479,42.694z M2.561,31.43v14.01h14.01C9.992,43.176,4.824,38.008,2.561,31.43z M7.044,39.548
		c-0.411-0.203-0.874-0.317-1.363-0.317c-0.108,0-0.215,0.005-0.321,0.017c0.268-0.288,0.432-0.672,0.432-1.096
		c0-0.033-0.001-0.066-0.003-0.099C6.187,38.57,6.605,39.068,7.044,39.548z M2.848,32.99c0.634,1.503,1.416,2.919,2.331,4.229
		c0.08,0.153,0.127,0.259,0.127,0.259c0.118,0.197,0.186,0.426,0.186,0.672c0,0.721-0.587,1.308-1.308,1.308
		s-1.308-0.587-1.308-1.308c0,0-0.014-0.182-0.028-0.444V32.99z M4.273,40.913c-0.006,0-0.012,0-0.018,0
		c-0.633,0-1.169,0.419-1.346,0.994c0.18-1.214,1.143-2.177,2.357-2.357c-0.575,0.177-0.995,0.713-0.995,1.346
		C4.272,40.901,4.273,40.907,4.273,40.913z M2.848,39.047c0.252,0.374,0.658,0.637,1.126,0.698
		c-0.493,0.327-0.887,0.792-1.126,1.341V39.047z M2.848,45.152v-1.599c0.312,0.714,0.885,1.287,1.599,1.599H2.848z M2.91,42.732
		c0.177,0.576,0.713,0.995,1.346,0.995c0.006,0,0.012-0.001,0.018-0.001c0,0.006-0.001,0.012-0.001,0.018
		c0,0.633,0.42,1.169,0.995,1.346C4.053,44.91,3.09,43.947,2.91,42.732z M4.564,43.744c0-0.028,0.001-0.057,0.003-0.084L4.34,43.433
		c-0.028,0.001-0.056,0.003-0.084,0.003c-0.616,0-1.116-0.5-1.116-1.116c0-0.615,0.5-1.116,1.116-1.116
		c0.028,0,0.057,0.001,0.084,0.003l0.228-0.228c-0.002-0.028-0.003-0.056-0.003-0.084c0-0.615,0.5-1.116,1.116-1.116
		c0.615,0,1.116,0.501,1.116,1.116c0,0.028-0.001,0.057-0.003,0.084l0.228,0.228c0.028-0.002,0.056-0.003,0.084-0.003
		c0.615,0,1.116,0.501,1.116,1.116c0,0.616-0.501,1.116-1.116,1.116c-0.028,0-0.057-0.001-0.084-0.003L6.793,43.66
		c0.002,0.028,0.003,0.056,0.003,0.084c0,0.616-0.501,1.116-1.116,1.116C5.064,44.86,4.564,44.36,4.564,43.744z M7.087,43.744
		c0-0.006,0-0.012,0-0.018c0.006,0,0.012,0.001,0.018,0.001c0.633,0,1.169-0.419,1.346-0.995C8.27,43.947,7.308,44.91,6.093,45.09
		C6.668,44.913,7.087,44.377,7.087,43.744z M6.915,45.152c0.548-0.239,1.014-0.633,1.341-1.126c0.061,0.469,0.324,0.874,0.698,1.126
		H6.915z M10.78,42.821c1.311,0.915,2.726,1.697,4.229,2.331h-4.717c-0.262-0.014-0.444-0.028-0.444-0.028
		c-0.721,0-1.308-0.587-1.308-1.308s0.587-1.308,1.308-1.308c0.246,0,0.476,0.068,0.672,0.187
		C10.521,42.694,10.627,42.741,10.78,42.821z M9.948,42.211c-0.033-0.002-0.066-0.003-0.099-0.003c-0.424,0-0.809,0.165-1.096,0.432
		c0.011-0.105,0.017-0.212,0.017-0.321c0-0.489-0.115-0.952-0.318-1.363C8.932,41.395,9.43,41.813,9.948,42.211z M7.105,40.913
		c-0.006,0-0.012,0-0.018,0c0-0.006,0-0.012,0-0.018c0-0.633-0.419-1.169-0.994-1.346c1.215,0.181,2.177,1.143,2.357,2.357
		C8.274,41.332,7.738,40.913,7.105,40.913z M45.439,16.57V2.561H31.43C38.008,4.824,43.176,9.992,45.439,16.57z M38.052,5.789
		c0.033,0.002,0.066,0.003,0.099,0.003c0.424,0,0.809-0.165,1.096-0.432c-0.011,0.105-0.017,0.212-0.017,0.321
		c0,0.489,0.114,0.952,0.317,1.363C39.068,6.605,38.57,6.187,38.052,5.789z M39.549,6.093c0.177,0.575,0.713,0.994,1.346,0.994
		c0.006,0,0.012,0,0.018,0c0,0.006,0,0.012,0,0.018c0,0.633,0.419,1.169,0.994,1.346C40.692,8.27,39.73,7.308,39.549,6.093z
		 M40.956,8.452c0.411,0.203,0.874,0.318,1.363,0.318c0.108,0,0.215-0.006,0.321-0.017c-0.268,0.288-0.432,0.672-0.432,1.096
		c0,0.033,0.001,0.066,0.003,0.099C41.813,9.43,41.395,8.932,40.956,8.452z M45.152,15.01c-0.633-1.503-1.416-2.918-2.331-4.229
		c-0.08-0.153-0.127-0.259-0.127-0.259c-0.119-0.197-0.187-0.426-0.187-0.672c0-0.721,0.587-1.308,1.308-1.308
		s1.308,0.587,1.308,1.308c0,0,0.014,0.182,0.028,0.444V15.01z M43.727,7.087c0.006,0,0.012,0,0.018,0
		c0.633,0,1.169-0.419,1.346-0.994c-0.18,1.215-1.143,2.177-2.357,2.357c0.576-0.177,0.995-0.713,0.995-1.346
		C43.728,7.099,43.727,7.093,43.727,7.087z M45.152,8.953c-0.252-0.374-0.658-0.637-1.126-0.698
		c0.493-0.327,0.887-0.792,1.126-1.341V8.953z M45.152,2.848v1.599c-0.312-0.714-0.885-1.287-1.599-1.599H45.152z M45.09,5.268
		c-0.177-0.575-0.713-0.995-1.346-0.995c-0.006,0-0.012,0.001-0.018,0.001c0-0.006,0.001-0.012,0.001-0.018
		c0-0.633-0.419-1.169-0.995-1.346C43.947,3.09,44.91,4.053,45.09,5.268z M43.436,4.256c0,0.028-0.001,0.057-0.003,0.084
		l0.227,0.228c0.028-0.002,0.056-0.003,0.084-0.003c0.616,0,1.116,0.5,1.116,1.116c0,0.615-0.5,1.116-1.116,1.116
		c-0.028,0-0.057-0.001-0.084-0.003l-0.227,0.228c0.001,0.028,0.003,0.056,0.003,0.084c0,0.615-0.5,1.116-1.116,1.116
		c-0.615,0-1.116-0.501-1.116-1.116c0-0.028,0.001-0.057,0.003-0.084l-0.228-0.228c-0.028,0.002-0.056,0.003-0.084,0.003
		c-0.615,0-1.116-0.501-1.116-1.116c0-0.616,0.501-1.116,1.116-1.116c0.028,0,0.057,0.001,0.084,0.003l0.228-0.228
		c-0.002-0.028-0.003-0.056-0.003-0.084c0-0.616,0.501-1.116,1.116-1.116C42.936,3.14,43.436,3.64,43.436,4.256z M40.913,4.256
		c0,0.006,0,0.012,0,0.018c-0.006,0-0.012-0.001-0.018-0.001c-0.633,0-1.169,0.42-1.346,0.995c0.181-1.215,1.143-2.177,2.357-2.357
		C41.332,3.087,40.913,3.623,40.913,4.256z M41.085,2.848c-0.548,0.239-1.014,0.633-1.341,1.126
		c-0.061-0.469-0.324-0.874-0.698-1.126H41.085z M38.151,2.876c0.721,0,1.308,0.587,1.308,1.308s-0.587,1.308-1.308,1.308
		c-0.246,0-0.476-0.068-0.672-0.186c0,0-0.106-0.047-0.259-0.127c-1.311-0.915-2.726-1.697-4.229-2.331h4.717
		C37.969,2.862,38.151,2.876,38.151,2.876z M16.57,2.561H2.561v14.01C4.824,9.992,9.992,4.824,16.57,2.561z M8.452,7.044
		C8.655,6.633,8.77,6.17,8.77,5.681c0-0.108-0.006-0.215-0.017-0.321C9.04,5.627,9.425,5.792,9.849,5.792
		c0.033,0,0.066-0.001,0.099-0.003C9.43,6.187,8.932,6.605,8.452,7.044z M10.292,2.848h4.717c-1.503,0.634-2.918,1.416-4.229,2.331
		c-0.153,0.08-0.259,0.127-0.259,0.127c-0.197,0.118-0.426,0.186-0.672,0.186c-0.721,0-1.308-0.587-1.308-1.308
		s0.587-1.308,1.308-1.308C9.849,2.876,10.031,2.862,10.292,2.848z M8.953,2.848C8.579,3.101,8.316,3.506,8.255,3.975
		C7.928,3.481,7.463,3.087,6.915,2.848H8.953z M8.451,5.268C8.274,4.692,7.738,4.272,7.105,4.272c-0.006,0-0.012,0.001-0.018,0.001
		c0-0.006,0-0.012,0-0.018c0-0.633-0.419-1.169-0.994-1.346C7.308,3.09,8.27,4.053,8.451,5.268z M6.796,4.256
		c0,0.028-0.001,0.057-0.003,0.084l0.228,0.228c0.028-0.002,0.056-0.003,0.084-0.003c0.615,0,1.116,0.5,1.116,1.116
		c0,0.615-0.501,1.116-1.116,1.116c-0.028,0-0.057-0.001-0.084-0.003L6.793,7.021c0.002,0.028,0.003,0.056,0.003,0.084
		c0,0.615-0.501,1.116-1.116,1.116c-0.616,0-1.116-0.501-1.116-1.116c0-0.028,0.001-0.057,0.003-0.084L4.34,6.793
		C4.313,6.795,4.284,6.796,4.256,6.796c-0.616,0-1.116-0.501-1.116-1.116c0-0.616,0.5-1.116,1.116-1.116
		c0.028,0,0.057,0.001,0.084,0.003L4.568,4.34C4.566,4.313,4.564,4.284,4.564,4.256c0-0.616,0.5-1.116,1.116-1.116
		C6.295,3.14,6.796,3.64,6.796,4.256z M5.268,8.451C4.053,8.27,3.09,7.308,2.91,6.093c0.177,0.575,0.713,0.994,1.346,0.994
		c0.006,0,0.012,0,0.018,0c0,0.006-0.001,0.012-0.001,0.018C4.272,7.738,4.692,8.274,5.268,8.451z M4.272,4.256
		c0,0.006,0.001,0.012,0.001,0.018c-0.006,0-0.012-0.001-0.018-0.001c-0.633,0-1.169,0.42-1.346,0.995
		C3.09,4.053,4.053,3.09,5.268,2.91C4.692,3.087,4.272,3.623,4.272,4.256z M2.848,2.848h1.599C3.733,3.16,3.16,3.733,2.848,4.447
		V2.848z M2.848,6.915c0.239,0.548,0.633,1.014,1.126,1.341C3.506,8.316,3.101,8.579,2.848,8.953V6.915z M5.306,10.521
		c0,0-0.047,0.106-0.127,0.259c-0.915,1.311-1.697,2.726-2.331,4.229v-4.717c0.014-0.262,0.028-0.444,0.028-0.444
		c0-0.721,0.587-1.308,1.308-1.308s1.308,0.587,1.308,1.308C5.492,10.095,5.424,10.324,5.306,10.521z M5.789,9.948
		c0.002-0.033,0.003-0.066,0.003-0.099c0-0.424-0.165-0.809-0.432-1.096C5.465,8.764,5.572,8.77,5.681,8.77
		c0.489,0,0.952-0.115,1.363-0.318C6.605,8.932,6.187,9.43,5.789,9.948z M6.093,8.451c0.575-0.177,0.994-0.713,0.994-1.346
		c0-0.006,0-0.012,0-0.018c0.006,0,0.012,0,0.018,0c0.633,0,1.169-0.419,1.346-0.994C8.27,7.308,7.308,8.27,6.093,8.451z
		 M1.488,1.488v45.023h45.023V1.488H1.488z M2.081,45.92V27.536c1.509,9.429,8.955,16.875,18.384,18.384H2.081z M2.081,20.464V2.081
		h18.384C11.036,3.589,3.589,11.036,2.081,20.464z M45.92,45.92H27.536c9.429-1.509,16.875-8.956,18.384-18.384V45.92z
		 M45.92,20.464c-1.509-9.429-8.956-16.875-18.384-18.384H45.92V20.464z"/>
	<circle id="back" fill="#EDE7CE" cx="24" cy="24" r="21"/>
	<path d="M13.127,6.059c0.254-0.154,0.501-0.319,0.762-0.462l2.701,4.678c-0.262,0.142-0.51,0.305-0.763,0.461L13.127,6.059z
		 M39.596,24c0,0.15-0.019,0.296-0.022,0.445h5.404C44.98,24.296,45,24.15,45,24s-0.02-0.296-0.022-0.445h-5.404
		C39.578,23.704,39.596,23.85,39.596,24z M10.735,15.827l-4.677-2.7c-0.154,0.254-0.319,0.501-0.462,0.762l4.678,2.701
		C10.417,16.328,10.579,16.08,10.735,15.827z M34.873,6.059c-0.254-0.154-0.501-0.319-0.762-0.462l-2.701,4.678
		c0.262,0.142,0.51,0.305,0.763,0.461L34.873,6.059z M8.404,24c0-0.15,0.019-0.296,0.022-0.445H3.022C3.02,23.704,3,23.85,3,24
		s0.02,0.296,0.022,0.445h5.404C8.422,24.296,8.404,24.15,8.404,24z M24.445,8.426V3.022C24.296,3.02,24.15,3,24,3
		s-0.296,0.02-0.445,0.022v5.404C23.704,8.422,23.85,8.404,24,8.404S24.296,8.422,24.445,8.426z M42.404,34.111l-4.678-2.701
		c-0.142,0.262-0.305,0.51-0.461,0.763l4.677,2.7C42.096,34.619,42.26,34.372,42.404,34.111z M42.404,13.889
		c-0.144-0.261-0.308-0.508-0.462-0.762l-4.677,2.7c0.156,0.253,0.319,0.501,0.461,0.763L42.404,13.889z M32.173,37.265
		c-0.253,0.156-0.501,0.319-0.763,0.461l2.701,4.678c0.261-0.144,0.508-0.308,0.762-0.462L32.173,37.265z M10.735,32.173
		c-0.156-0.253-0.319-0.501-0.461-0.763l-4.678,2.701c0.144,0.261,0.308,0.508,0.462,0.762L10.735,32.173z M16.59,37.726
		c-0.262-0.142-0.51-0.305-0.763-0.461l-2.7,4.677c0.254,0.154,0.501,0.319,0.762,0.462L16.59,37.726z M24.445,44.978v-5.404
		c-0.149,0.004-0.295,0.022-0.445,0.022s-0.296-0.019-0.445-0.022v5.404C23.704,44.98,23.85,45,24,45S24.296,44.98,24.445,44.978z"
		/>
	<g id="Short_Hand_2_">
		<g>
			<path fill="#4F0200" d="M31.476,30.485c-0.229-0.107-0.386-0.125-0.549-0.125c-0.272,0-0.519,0.052-0.736,0.099
				c-0.188,0.04-0.364,0.078-0.533,0.078c-0.231,0-0.419-0.071-0.61-0.231c-0.654-0.549-0.001-1.342,0.027-1.376l0.062-0.073
				l-2.28-1.914c-0.249-0.209-0.533-0.329-0.778-0.329c-0.176,0-0.333,0.06-0.46,0.174c-0.069-0.091-0.083-0.201-0.103-0.341
				c-0.037-0.271-0.082-0.608-0.542-0.994l-0.655-0.367c-0.151,0.01-0.236,0.02-0.321,0.02c-0.258,0-0.51-0.092-0.708-0.258
				c-0.268-0.225-0.411-0.555-0.393-0.906l-0.218-0.233c-0.101-0.084-0.237-0.125-0.418-0.125c-0.145,0-0.306,0.026-0.467,0.052
				c-0.15,0.025-0.301,0.05-0.436,0.05c-0.134,0-0.23-0.026-0.295-0.081c-0.305-0.256-0.211-0.527-0.033-0.948
				c0.133-0.315,0.281-0.665,0.147-1.024c0.05,0.009,0.1,0.014,0.15,0.014c0.313,0,0.577-0.17,0.833-0.335
				c0.213-0.138,0.414-0.269,0.609-0.269c0.113,0,0.222,0.045,0.331,0.137c0.15,0.125,0.153,0.425,0.157,0.714
				c0.004,0.333,0.008,0.678,0.226,0.86l0.184,0.154c0.006,0,0.012,0,0.018,0c0.154,0,0.236-0.009,0.317-0.009
				c0.258,0,0.51,0.092,0.708,0.258c0.268,0.225,0.411,0.555,0.393,0.906l0.483,0.635c0.396,0.334,0.697,0.377,0.941,0.377
				l0.263-0.007c0.09,0,0.165,0.009,0.236,0.045c-0.251,0.399-0.008,0.878,0.368,1.193l2.28,1.913l0.062-0.073
				c0.004-0.005,0.394-0.46,0.856-0.46c0.174,0,0.34,0.065,0.494,0.195c0.377,0.316,0.365,0.662,0.35,1.099
				c-0.013,0.353-0.027,0.752,0.169,1.203l0.579,0.091l-0.003,0.591l-0.578,0.108L31.476,30.485z M24,23.184
				c-0.242,0-0.47,0.106-0.626,0.292c-0.289,0.345-0.244,0.86,0.101,1.15c0.146,0.123,0.333,0.19,0.524,0.19
				c0.242,0,0.47-0.106,0.626-0.292c0.289-0.345,0.244-0.86-0.101-1.15C24.378,23.251,24.191,23.184,24,23.184z"/>
		</g>
		<g>
			<path d="M22.768,21.136c0.091,0,0.177,0.036,0.269,0.114c0.116,0.098,0.12,0.387,0.123,0.643c0.004,0.354,0.008,0.721,0.26,0.932
				l0.184,0.154l0.074,0.062l0.093-0.021c0.075-0.018,0.153-0.026,0.23-0.026c0.236,0,0.466,0.083,0.646,0.235
				c0.245,0.206,0.376,0.507,0.358,0.828l-0.004,0.074l0.047,0.058l0.488,0.595c0.409,0.343,0.744,0.387,0.99,0.387
				c0.051,0,0.101-0.002,0.148-0.004l0.115-0.003c0.038,0,0.07,0.002,0.099,0.006c-0.161,0.377,0,0.838,0.443,1.21l2.207,1.851
				l0.147,0.124l0.123-0.147c0.004-0.004,0.369-0.426,0.783-0.426c0.153,0,0.294,0.056,0.432,0.172
				c0.341,0.287,0.331,0.595,0.315,1.022c-0.013,0.362-0.027,0.773,0.177,1.245l0.046,0.106l0.115,0.009l0.41,0.033l-0.002,0.416
				l-0.412,0.077l-0.103-0.397l-0.029-0.112l-0.112-0.026c-0.166-0.04-0.33-0.059-0.501-0.059c-0.282,0-0.534,0.054-0.756,0.101
				c-0.182,0.039-0.354,0.075-0.513,0.075c-0.207,0-0.376-0.064-0.548-0.208c-0.578-0.485,0.014-1.21,0.039-1.241l0.122-0.147
				l-0.146-0.123l-2.206-1.852c-0.27-0.227-0.568-0.352-0.84-0.352c-0.158,0-0.303,0.042-0.429,0.125
				c-0.018-0.054-0.027-0.121-0.039-0.208c-0.037-0.272-0.087-0.645-0.605-1.075l-0.64-0.357l-0.064-0.036l-0.072,0.017
				c-0.075,0.018-0.153,0.026-0.23,0.026c-0.236,0-0.466-0.083-0.646-0.235c-0.245-0.206-0.376-0.507-0.358-0.828l0.005-0.096
				l-0.073-0.062l-0.184-0.154c-0.119-0.1-0.276-0.148-0.48-0.148c-0.156,0-0.322,0.027-0.483,0.053
				c-0.152,0.025-0.296,0.049-0.42,0.049c-0.11,0-0.187-0.019-0.233-0.058c-0.254-0.213-0.177-0.434-0.007-0.838
				c0.118-0.279,0.257-0.608,0.189-0.952c0.006,0,0.013,0,0.02,0c0.342,0,0.63-0.187,0.885-0.351
				C22.412,21.258,22.602,21.136,22.768,21.136 M24,24.912c0.271,0,0.525-0.119,0.699-0.326c0.323-0.385,0.272-0.962-0.112-1.285
				c-0.164-0.138-0.372-0.213-0.586-0.213c-0.271,0-0.525,0.119-0.699,0.326c-0.323,0.385-0.272,0.962,0.112,1.285
				C23.578,24.836,23.786,24.912,24,24.912 M22.768,20.944c-0.466,0-0.894,0.604-1.442,0.604c-0.111,0-0.227-0.025-0.349-0.084
				c0.582,0.801-0.712,1.596,0.023,2.213c0.092,0.077,0.216,0.103,0.357,0.103c0.28,0,0.624-0.102,0.903-0.102
				c0.141,0,0.265,0.026,0.357,0.103l0.184,0.154c-0.02,0.364,0.126,0.732,0.427,0.985c0.225,0.188,0.498,0.28,0.77,0.28
				c0.092,0,0.184-0.01,0.274-0.031l0.64,0.357c0.736,0.617,0.338,1.091,0.706,1.399c0.128-0.153,0.29-0.216,0.46-0.216
				c0.241,0,0.502,0.126,0.717,0.307l2.206,1.852c0,0-0.75,0.894-0.015,1.511c0.23,0.193,0.448,0.254,0.671,0.254
				c0.381,0,0.776-0.177,1.269-0.177c0.143,0,0.295,0.015,0.457,0.054l0.148,0.571l0.744-0.139l0.004-0.752l-0.587-0.047
				c-0.426-0.984,0.19-1.72-0.545-2.337c-0.188-0.158-0.378-0.217-0.556-0.217c-0.515,0-0.93,0.494-0.93,0.494l-2.207-1.851
				c-0.368-0.309-0.602-0.776-0.293-1.144c-0.118-0.099-0.238-0.117-0.372-0.117c-0.082,0-0.169,0.007-0.263,0.007
				c-0.233,0-0.51-0.043-0.866-0.342l-0.462-0.569c0.02-0.364-0.126-0.732-0.427-0.985c-0.225-0.188-0.498-0.28-0.77-0.28
				c-0.092,0-0.184,0.01-0.274,0.031l-0.184-0.154c-0.368-0.309-0.015-1.267-0.383-1.575C23.025,20.989,22.895,20.944,22.768,20.944
				L22.768,20.944z M24,24.72c-0.163,0-0.328-0.055-0.462-0.168c-0.305-0.256-0.344-0.71-0.089-1.015
				c0.143-0.17,0.347-0.257,0.552-0.257c0.163,0,0.328,0.055,0.462,0.168c0.305,0.256,0.344,0.71,0.089,1.015
				C24.409,24.633,24.205,24.72,24,24.72L24,24.72z"/>
		</g>
	</g>
	<g id="Long_Hand_1_">
		<path fill="#4F0200" d="M24.884,25.262c-0.335,0.149-0.607,0.227-0.886,0.227c-0.26,0-0.516-0.069-0.742-0.199
			c-0.466-0.27-0.751-0.772-0.744-1.311c-0.499-0.33-1.002-0.555-1.65-0.555c-0.331,0-0.671,0.059-1.036,0.179
			c0.09-0.98-0.168-1.865-0.271-2.167c0.313-0.063,1.208-0.281,2.012-0.85c0.26,1.241,0.944,1.754,1.569,2.138
			c0.331-0.137,0.595-0.21,0.865-0.21c0.259,0,0.516,0.069,0.742,0.199c0.476,0.275,0.761,0.788,0.743,1.338l16.211,9.614
			l0.433,0.803l-0.936,0.016L24.884,25.262z M24,23.064c-0.333,0-0.645,0.179-0.811,0.468c-0.125,0.216-0.159,0.468-0.094,0.71
			c0.065,0.242,0.22,0.443,0.437,0.568c0.142,0.083,0.304,0.126,0.467,0.126c0.333,0,0.645-0.179,0.811-0.468
			c0.125-0.216,0.159-0.468,0.094-0.71c-0.065-0.242-0.22-0.443-0.437-0.568C24.326,23.107,24.164,23.064,24,23.064z"/>
		<path d="M21.506,20.744c0.288,1.178,0.962,1.681,1.582,2.06l0.099,0.061l0.1-0.059c0.217-0.129,0.464-0.197,0.716-0.197
			c0.243,0,0.482,0.064,0.693,0.186c0.446,0.258,0.712,0.737,0.696,1.252l-0.003,0.114l0.098,0.058l16.119,9.502l0.362,0.654
			l-0.747,0.012l-16.29-9.208l-0.099-0.056l-0.097,0.06c-0.222,0.137-0.477,0.21-0.737,0.21c-0.243,0-0.482-0.064-0.694-0.186
			c-0.437-0.252-0.703-0.723-0.696-1.227l0.002-0.116l-0.102-0.055c-0.438-0.238-0.975-0.481-1.646-0.481
			c-0.3,0-0.606,0.046-0.929,0.141c0.051-0.847-0.142-1.604-0.253-1.962C20.045,21.424,20.798,21.211,21.506,20.744 M24,25.032
			c0.368,0,0.71-0.198,0.894-0.516c0.138-0.239,0.175-0.517,0.104-0.783c-0.071-0.266-0.242-0.489-0.48-0.626
			c-0.157-0.091-0.335-0.139-0.516-0.139c-0.368,0-0.71,0.198-0.894,0.516c-0.138,0.239-0.175,0.517-0.104,0.783
			c0.071,0.266,0.242,0.489,0.48,0.626C23.641,24.984,23.819,25.032,24,25.032 M21.634,20.417c-0.992,0.758-2.207,0.943-2.207,0.943
			s0.447,1.145,0.287,2.382c0.431-0.159,0.809-0.224,1.148-0.224c0.606,0,1.092,0.207,1.554,0.458
			c-0.008,0.555,0.277,1.098,0.792,1.396c0.25,0.144,0.521,0.212,0.79,0.212c0.295,0,0.587-0.083,0.838-0.239l16.335,9.233
			l1.119-0.019l-0.543-0.979l-16.164-9.529c0.018-0.565-0.268-1.122-0.792-1.424c-0.249-0.144-0.521-0.212-0.79-0.212
			c-0.286,0-0.568,0.078-0.814,0.224C22.489,22.212,21.853,21.678,21.634,20.417L21.634,20.417z M24,24.84
			c-0.143,0-0.287-0.036-0.419-0.113c-0.402-0.231-0.54-0.746-0.307-1.147c0.155-0.27,0.438-0.42,0.728-0.42
			c0.143,0,0.287,0.036,0.419,0.113c0.402,0.231,0.54,0.746,0.307,1.147C24.572,24.689,24.29,24.84,24,24.84L24,24.84z"/>
	</g>
</g>
</svg>
